<?xml version="1.0" encoding="iso-8859-1"?>
<!-- Generator: Adobe Illustrator 19.0.0, SVG Export Plug-In . SVG Version: 6.00 Build 0)  -->
<svg version="1.1" id="Layer_1" xmlns="http://www.w3.org/2000/svg" xmlns:xlink="http://www.w3.org/1999/xlink" x="0px" y="0px"
	 viewBox="0 0 512 512" style="enable-background:new 0 0 512 512;" xml:space="preserve">
<g>
	<path style="fill:#2980BA;" d="M512,256c0,141.383-114.617,256-256,256S0,397.383,0,256S114.617,0,256,0S512,114.617,512,256"/>
	<g>
		<path style="fill:#FFFFFF;" d="M256,61.793C148.913,61.793,61.793,148.913,61.793,256S148.913,450.207,256,450.207
			S450.207,363.087,450.207,256S363.087,61.793,256,61.793 M256,467.862c-116.815,0-211.862-95.047-211.862-211.862
			S139.185,44.138,256,44.138S467.862,139.185,467.862,256S372.815,467.862,256,467.862"/>
		<path style="fill:#FFFFFF;" d="M116.354,156.754c38.056,39.91,113.849,128.883,139.644,227.999
			c25.988-99.849,102.709-189.396,140.473-228.873C269.548,179.556,165.576,166.314,116.354,156.754 M255.997,459.037
			c-4.873,0-8.828-3.955-8.828-8.828c0-148.895-163.222-300.959-164.873-302.477c-3.01-2.772-3.716-7.256-1.713-10.823
			c2.013-3.575,6.197-5.288,10.152-4.149c1.457,0.424,147.341,41.481,331.043-0.124c3.866-0.9,7.901,0.962,9.754,4.502
			c1.863,3.54,1.112,7.883-1.827,10.593c-1.642,1.518-164.882,153.706-164.882,302.477
			C264.825,455.082,260.879,459.037,255.997,459.037"/>
	</g>
</g>
<g>
</g>
<g>
</g>
<g>
</g>
<g>
</g>
<g>
</g>
<g>
</g>
<g>
</g>
<g>
</g>
<g>
</g>
<g>
</g>
<g>
</g>
<g>
</g>
<g>
</g>
<g>
</g>
<g>
</g>
</svg>
