<?xml version="1.0" encoding="iso-8859-1"?>
<!-- Generator: Adobe Illustrator 19.0.0, SVG Export Plug-In . SVG Version: 6.00 Build 0)  -->
<svg version="1.1" id="Layer_1" xmlns="http://www.w3.org/2000/svg" xmlns:xlink="http://www.w3.org/1999/xlink" x="0px" y="0px"
	 viewBox="0 0 512 512" style="enable-background:new 0 0 512 512;" xml:space="preserve">
<g>
	<path style="fill:#F0C419;" d="M512,256c0,141.383-114.617,256-256,256S0,397.383,0,256S114.617,0,256,0S512,114.617,512,256"/>
	<polygon style="fill:#DF4D60;" points="158.897,194.207 353.103,194.207 256,353.103 	"/>
	<path style="fill:#F0785A;" d="M459.034,203.034c0-58.5-47.431-105.931-105.931-105.931c-43.467,0-80.772,24.346-97.103,61.793
		c-16.331-37.447-53.636-61.793-97.103-61.793c-58.5,0-105.931,47.431-105.931,105.931s47.431,105.931,105.931,105.931
		c0.309,0-0.309,0,0,0c-6.197,13.462-8.828,28.345-8.828,44.138c0,58.5,47.431,105.931,105.931,105.931
		s105.931-47.431,105.931-105.931c0-15.793-2.631-30.676-8.828-44.138c0.309,0-0.309,0,0,0
		C411.604,308.966,459.034,261.535,459.034,203.034"/>
	<g>
		<path style="fill:#A84A38;" d="M353.103,132.414c-35.946,0-65.642,27.012-70.012,61.793h70.012l-40.633,66.489
			c11.502,8.13,25.503,12.959,40.633,12.959c38.938,0,70.621-31.682,70.621-70.621S392.042,132.414,353.103,132.414"/>
		<path style="fill:#A84A38;" d="M292.774,292.928l-36.776,60.178l-36.776-60.178c-20.259,12.429-33.845,34.719-33.845,60.178
			c0,38.938,31.682,70.621,70.621,70.621s70.621-31.682,70.621-70.621C326.619,327.647,313.033,305.358,292.774,292.928"/>
		<path style="fill:#A84A38;" d="M158.897,194.207h70.012c-4.37-34.781-34.066-61.793-70.012-61.793
			c-38.938,0-70.621,31.682-70.621,70.621s31.682,70.621,70.621,70.621c15.13,0,29.131-4.829,40.633-12.959L158.897,194.207z"/>
		<polygon style="fill:#A84A38;" points="220.69,229.517 291.31,229.517 256,282.483 		"/>
	</g>
</g>
<g>
</g>
<g>
</g>
<g>
</g>
<g>
</g>
<g>
</g>
<g>
</g>
<g>
</g>
<g>
</g>
<g>
</g>
<g>
</g>
<g>
</g>
<g>
</g>
<g>
</g>
<g>
</g>
<g>
</g>
</svg>
