<?xml version="1.0" encoding="iso-8859-1"?>
<!-- Generator: Adobe Illustrator 19.0.0, SVG Export Plug-In . SVG Version: 6.00 Build 0)  -->
<svg version="1.1" id="Layer_1" xmlns="http://www.w3.org/2000/svg" xmlns:xlink="http://www.w3.org/1999/xlink" x="0px" y="0px"
	 viewBox="0 0 512 512" style="enable-background:new 0 0 512 512;" xml:space="preserve">
<g>
	<path style="fill:#26B99A;" d="M0,256C0,114.617,114.617,0,256,0s256,114.617,256,256S397.383,512,256,512S0,397.383,0,256"/>
	<g>
		<path style="fill:#FFFFFF;" d="M256,335.448c3.513,0,6.691,2.083,8.095,5.297c15.192,34.851,49.302,56.497,89.009,56.497
			c53.539,0,97.103-43.564,97.103-97.103s-43.564-97.103-97.103-97.103c-4.864,0-8.898-3.937-8.916-8.801
			c-0.009-1.677,0.468-3.249,1.289-4.59c5.058-11.37,7.627-24.682,7.627-39.574c0-53.539-43.564-97.103-97.103-97.103
			s-97.103,43.564-97.103,97.103c0,14.892,2.569,28.204,7.627,39.574c0.821,1.342,1.298,2.913,1.289,4.59
			c-0.018,4.864-4.052,8.801-8.916,8.801c-53.539,0-97.103,43.564-97.103,97.103s43.564,97.103,97.103,97.103
			c39.706,0,73.816-21.645,89.009-56.497C249.309,337.532,252.487,335.448,256,335.448 M353.103,414.897
			c-40.775,0-76.606-19.482-97.103-51.836c-20.498,32.353-56.329,51.836-97.103,51.836c-63.276,0-114.759-51.482-114.759-114.759
			c0-59.039,44.818-107.811,102.215-114.079c-3.399-10.955-5.111-23.014-5.111-35.99C141.241,86.793,192.724,35.31,256,35.31
			s114.759,51.482,114.759,114.759c0,12.985-1.713,25.035-5.12,35.99c57.415,6.285,102.223,55.04,102.223,114.079
			C467.862,363.414,416.38,414.897,353.103,414.897"/>
		<path style="fill:#FFFFFF;" d="M175.125,203.034l80.878,124.99l80.87-124.99H175.125z M256.004,353.103
			c-3.001,0-5.791-1.518-7.415-4.034L151.485,199c-1.757-2.71-1.889-6.17-0.344-9.013c1.545-2.842,4.52-4.608,7.759-4.608h194.207
			c3.231,0,6.206,1.766,7.751,4.608c1.545,2.842,1.412,6.303-0.344,9.013L263.41,349.069
			C261.786,351.585,258.996,353.103,256.004,353.103L256.004,353.103z"/>
	</g>
</g>
<g>
</g>
<g>
</g>
<g>
</g>
<g>
</g>
<g>
</g>
<g>
</g>
<g>
</g>
<g>
</g>
<g>
</g>
<g>
</g>
<g>
</g>
<g>
</g>
<g>
</g>
<g>
</g>
<g>
</g>
</svg>
