<?xml version="1.0" encoding="iso-8859-1"?>
<!-- Generator: Adobe Illustrator 19.0.0, SVG Export Plug-In . SVG Version: 6.00 Build 0)  -->
<svg version="1.1" id="Layer_1" xmlns="http://www.w3.org/2000/svg" xmlns:xlink="http://www.w3.org/1999/xlink" x="0px" y="0px"
	 viewBox="0 0 512 512" style="enable-background:new 0 0 512 512;" xml:space="preserve">
<g>
	<path style="fill:#D75A4A;" d="M512,256c0,141.383-114.617,256-256,256S0,397.383,0,256S114.617,0,256,0S512,114.617,512,256"/>
	<g>
		<path style="fill:#FFFFFF;" d="M256,61.793C148.913,61.793,61.793,148.913,61.793,256S148.913,450.207,256,450.207
			S450.207,363.087,450.207,256S363.087,61.793,256,61.793 M256,467.862c-116.815,0-211.862-95.047-211.862-211.862
			S139.185,44.138,256,44.138S467.862,139.185,467.862,256S372.815,467.862,256,467.862"/>
		<path style="fill:#FFFFFF;" d="M256,335.448c43.82,0,83.95,16.711,111.157,31.7C352.159,339.95,335.448,299.811,335.448,256
			s16.711-83.95,31.709-111.148c-27.207,14.989-67.337,31.7-111.157,31.7s-83.95-16.711-111.157-31.7
			c14.998,27.198,31.709,67.337,31.709,111.148s-16.711,83.95-31.709,111.148C172.05,352.159,212.18,335.448,256,335.448
			 M114.767,406.069c-2.269,0-4.529-0.874-6.241-2.578c-3.187-3.196-3.469-8.271-0.636-11.785
			c0.503-0.636,51.006-64.247,51.006-135.706c0-71.645-50.503-135.062-51.006-135.698c-2.834-3.513-2.56-8.589,0.627-11.785
			c3.169-3.196,8.271-3.452,11.776-0.636c0.636,0.512,64.238,51.015,135.706,51.015c71.636,0,135.071-50.503,135.698-51.006
			c3.513-2.842,8.589-2.56,11.776,0.618c3.187,3.196,3.469,8.271,0.636,11.785c-0.503,0.636-51.006,64.247-51.006,135.706
			c0,71.645,50.503,135.062,51.006,135.698c2.834,3.513,2.56,8.589-0.627,11.785c-3.178,3.187-8.28,3.452-11.776,0.636
			c-0.636-0.512-64.238-51.015-135.706-51.015c-71.636,0-135.071,50.503-135.698,51.006
			C118.678,405.425,116.718,406.069,114.767,406.069"/>
	</g>
</g>
<g>
</g>
<g>
</g>
<g>
</g>
<g>
</g>
<g>
</g>
<g>
</g>
<g>
</g>
<g>
</g>
<g>
</g>
<g>
</g>
<g>
</g>
<g>
</g>
<g>
</g>
<g>
</g>
<g>
</g>
</svg>
