<?xml version="1.0" encoding="iso-8859-1"?>
<!-- Generator: Adobe Illustrator 19.0.0, SVG Export Plug-In . SVG Version: 6.00 Build 0)  -->
<svg version="1.1" id="Layer_1" xmlns="http://www.w3.org/2000/svg" xmlns:xlink="http://www.w3.org/1999/xlink" x="0px" y="0px"
	 viewBox="0 0 512 512" style="enable-background:new 0 0 512 512;" xml:space="preserve">
<g>
	<path style="fill:#26B99A;" d="M256,512C114.847,512,0,397.162,0,256S114.847,0,256,0s256,114.838,256,256S397.153,512,256,512"/>
	<path style="fill:#FFFFFF;" d="M335.448,450.207c-21.99,0-43.494-5.155-62.967-14.875c7.715-5.861,14.848-12.403,21.372-19.562
		c13.241,5.173,27.171,7.954,41.596,7.954c63.276,0,114.759-51.483,114.759-114.759c0-40.227-20.851-75.626-52.259-96.124
		c-0.079-0.044-0.124-0.132-0.194-0.177c-2.11-1.359-4.255-2.631-6.426-3.849c-1.306-0.724-2.639-1.386-3.964-2.066
		c-1.827-0.927-3.655-1.827-5.517-2.657c-1.324-0.591-2.666-1.139-4.025-1.677c-1.871-0.75-3.769-1.439-5.676-2.083
		c-1.209-0.415-2.41-0.856-3.646-1.227c-3.01-0.909-6.056-1.695-9.137-2.357c-0.971-0.203-1.96-0.353-2.94-0.53
		c-2.481-0.468-4.97-0.847-7.486-1.148c-1.042-0.124-2.083-0.247-3.134-0.344c-3.434-0.309-6.886-0.521-10.355-0.521
		c-3.416,0-6.806,0.212-10.169,0.512c-0.433,0.044-0.865,0.026-1.289,0.071c-0.786,0.079-1.536,0.23-2.304,0.327
		c-2.11,0.256-4.193,0.583-6.268,0.953c-3.099,0.556-6.144,1.245-9.145,2.039c-0.962,0.256-1.942,0.468-2.895,0.742
		c-2.225,0.653-4.396,1.412-6.559,2.189c-0.591,0.212-1.183,0.424-1.774,0.653c-9.816,3.708-18.971,8.704-27.295,14.822
		c-0.026,0.018-0.044,0.035-0.071,0.053c-6.162,4.529-11.847,9.649-16.984,15.298c-0.406,0.45-0.821,0.892-1.218,1.342
		c-1.51,1.713-2.975,3.452-4.378,5.252c-0.433,0.547-0.83,1.112-1.245,1.66c-2.887,3.831-5.561,7.812-7.954,11.988
		c-0.062,0.106-0.124,0.203-0.185,0.309c-1.112,1.951-2.127,3.955-3.116,5.967c-0.221,0.441-0.468,0.847-0.68,1.289
		c-0.026,0.062-0.009,0.132-0.035,0.194c-6.656,13.974-10.567,29.458-11.026,45.824c-0.009,0.212-0.044,0.406-0.044,0.618
		c0,0.018,0.009,0.044,0.009,0.062c-0.018,0.874-0.132,1.721-0.132,2.595c0,25.238,8.351,49.585,23.534,69.5
		c-6.294,6.126-13.383,11.441-21.133,15.687c-13.515-17.752-22.669-38.365-26.615-60.169c-0.026-0.141-0.071-0.265-0.088-0.397
		c-0.627-3.487-1.05-7.009-1.404-10.54c-0.062-0.565-0.177-1.13-0.23-1.704c-0.362-4.105-0.547-8.227-0.547-12.376
		c0-3.893,0.274-7.715,0.583-11.529c0.132-1.536,0.23-3.019,0.415-4.643c0.026-0.265,0.088-0.521,0.124-0.786
		c1.201-10.037,3.513-19.677,6.674-28.91c1.024-2.957,2.022-5.932,3.231-8.801c0.3-0.715,0.671-1.395,0.98-2.101
		c0.742-1.677,1.58-3.284,2.375-4.926c1.624-3.328,3.363-6.568,5.217-9.728c1.095-1.845,2.18-3.708,3.346-5.5
		c1.033-1.589,2.127-3.134,3.222-4.67c1.324-1.871,2.692-3.699,4.114-5.5c1.05-1.342,2.101-2.701,3.204-4.008
		c2.189-2.578,4.467-5.094,6.833-7.512c1.086-1.112,2.216-2.172,3.337-3.24c2.013-1.942,4.078-3.831,6.206-5.65
		c1.315-1.121,2.675-2.198,4.034-3.275c1.818-1.43,3.681-2.816,5.57-4.167c1.439-1.024,2.869-2.066,4.343-3.037
		c2.763-1.827,5.605-3.549,8.501-5.173c0.009-0.009,0.018-0.018,0.035-0.018c0.503-0.291,1.015-0.574,1.536-0.847
		c1.271-0.697,2.595-1.324,3.893-1.977c1.986-1.006,3.981-1.995,6.02-2.904c1.774-0.794,3.566-1.545,5.367-2.269
		c2.127-0.847,4.281-1.615,6.453-2.366c1.633-0.556,3.249-1.156,4.899-1.66c2.869-0.865,5.791-1.571,8.73-2.251
		c1.068-0.247,2.127-0.538,3.213-0.759c1.086-0.23,2.189-0.406,3.284-0.609c2.445-0.45,4.926-0.812,7.415-1.139
		c0.609-0.071,1.201-0.185,1.81-0.256c1.183-0.132,2.357-0.282,3.54-0.388c4.202-0.38,8.439-0.644,12.738-0.644
		c4.22,0,8.369,0.274,12.491,0.636c3.99,0.38,8.077,0.927,12.332,1.686h0.009c0.9,0.168,1.836,0.238,2.737,0.424
		c0.697,0.132,1.386,0.291,2.083,0.441c4.096,0.883,8.139,1.898,12.094,3.125c0.274,0.079,0.538,0.185,0.812,0.274
		c3.496,1.103,6.903,2.401,10.275,3.769c1.218,0.494,2.428,0.98,3.628,1.51c49.841,21.831,84.78,71.574,84.78,129.377
		C476.69,386.842,413.325,450.207,335.448,450.207 M256,317.793c5.817,0,11.564-0.424,17.258-1.05
		c-1.412,17.735-7.583,34.127-17.284,47.907c-9.931-14.159-15.907-30.702-17.284-48.004
		C244.595,317.334,250.377,317.793,256,317.793 M337.17,211.968C319.391,239.069,288.777,256,256,256
		c-0.521,0-1.042-0.009-1.571-0.018c1.059-1.615,2.172-3.204,3.328-4.749c0.45-0.6,0.883-1.201,1.333-1.783
		c1.536-1.96,3.143-3.866,4.811-5.703c0.468-0.512,0.953-0.989,1.43-1.483c3.081-3.24,6.391-6.241,9.878-9.039
		c0.768-0.609,1.501-1.271,2.286-1.854c1.501-1.13,3.072-2.154,4.634-3.196c1.51-1.006,3.037-1.977,4.599-2.895
		c1.333-0.786,2.675-1.562,4.043-2.286c2.71-1.412,5.464-2.737,8.298-3.893c0.415-0.168,0.803-0.362,1.218-0.53
		c3.266-1.289,6.63-2.348,10.028-3.275c0.971-0.265,1.951-0.477,2.922-0.715c2.684-0.636,5.394-1.156,8.13-1.571
		c1.015-0.15,2.013-0.318,3.037-0.441c3.646-0.424,7.327-0.706,11.043-0.706C336.022,211.862,336.596,211.959,337.17,211.968
		 M432.552,308.966c0,53.539-43.564,97.103-97.103,97.103c-10.284,0-20.277-1.615-29.873-4.723
		c18.723-26.068,29.873-57.909,29.873-92.381c0-4.122-0.212-8.245-0.53-12.332c25.591-14.698,47.051-36.414,61.325-63.267
		C418.348,251.18,432.552,278.431,432.552,308.966 M360.783,215.331c2.816,0.768,5.597,1.66,8.342,2.675
		c0.724,0.274,1.457,0.512,2.172,0.794c3.469,1.386,6.886,2.94,10.196,4.732C357.358,270.318,308.93,300.138,256,300.138
		c-5.526,0-11.158-0.371-17.055-1.13c0.945-9.084,3.169-17.796,6.479-25.98c3.69,0.371,7.247,0.627,10.575,0.627
		c41.622,0,80.269-23.102,100.334-59.374c0.477,0.106,0.971,0.159,1.448,0.274C358.788,214.793,359.786,215.058,360.783,215.331
		 M35.31,308.966c0-4.334,0.265-8.598,0.653-12.826c0.097-1.103,0.212-2.198,0.335-3.293c0.45-3.893,1.015-7.742,1.766-11.529
		c0.062-0.318,0.106-0.653,0.168-0.971c0.856-4.14,1.933-8.21,3.151-12.217c0.256-0.839,0.53-1.677,0.794-2.507
		c1.227-3.778,2.56-7.495,4.078-11.123c0.088-0.194,0.159-0.406,0.238-0.609c1.73-4.061,3.646-8.015,5.738-11.873
		c0.15-0.282,0.318-0.556,0.468-0.839c2.057-3.752,4.273-7.406,6.647-10.937c0.062-0.097,0.124-0.185,0.185-0.274
		c4.899-7.247,10.487-13.992,16.614-20.189c0.371-0.38,0.733-0.75,1.103-1.121c5.853-5.791,12.226-11.043,19.006-15.748
		c1.148-0.794,2.322-1.554,3.505-2.322c2.18-1.412,4.405-2.754,6.665-4.052c1.386-0.794,2.745-1.615,4.158-2.366
		c19.712-10.461,42.143-16.446,65.969-16.446c21.945,0,43.405,5.138,62.835,14.804c-3.911,2.984-7.689,6.118-11.308,9.446
		c-0.035,0.035-0.079,0.071-0.115,0.106c-2.516,2.313-4.943,4.705-7.309,7.177c-0.203,0.221-0.406,0.441-0.618,0.653
		c-0.68,0.724-1.368,1.439-2.039,2.172c-13.206-5.138-27.101-7.874-41.446-7.874c-32.918,0-62.561,14.009-83.509,36.29
		c-0.618,0.653-1.201,1.315-1.801,1.977c-2.33,2.604-4.537,5.305-6.63,8.104c-0.671,0.892-1.351,1.757-1.995,2.666
		c-2.401,3.425-4.661,6.947-6.691,10.628c-0.071,0.132-0.159,0.256-0.23,0.388c-2.039,3.734-3.814,7.627-5.429,11.599
		c-0.512,1.245-0.927,2.525-1.395,3.796c-1.033,2.825-1.969,5.694-2.79,8.616c-0.397,1.448-0.777,2.895-1.121,4.361
		c-0.706,2.975-1.262,6.003-1.721,9.066c-0.203,1.324-0.459,2.639-0.609,3.972c-0.512,4.37-0.839,8.792-0.839,13.294
		c0,63.276,51.482,114.759,114.759,114.759c4.07,0,8.086-0.23,12.05-0.644c0.697-0.071,1.377-0.229,2.074-0.318
		c3.337-0.415,6.647-0.918,9.896-1.607c0.512-0.115,1.024-0.283,1.536-0.397c3.478-0.794,6.894-1.721,10.24-2.825
		c0.362-0.124,0.724-0.274,1.086-0.397c3.469-1.183,6.868-2.525,10.178-4.017c0.159-0.079,0.327-0.124,0.494-0.194
		c0.053-0.026,0.088-0.088,0.15-0.115c38.1-17.505,64.945-55.225,66.807-99.381c9.128-2.074,17.973-5.014,26.509-8.625
		c0.035,1.262,0.221,2.498,0.221,3.761c0,51.2-27.48,95.991-68.379,120.761c-4.838,2.931-9.807,5.588-14.91,7.901
		c-0.247,0.115-0.486,0.247-0.733,0.353c-2.233,0.997-4.511,1.88-6.797,2.763c-1.483,0.565-2.975,1.121-4.493,1.642
		c-2.074,0.724-4.167,1.43-6.276,2.057c-3.125,0.918-6.294,1.748-9.507,2.445c-1.58,0.353-3.169,0.618-4.758,0.909
		c-2.904,0.53-5.835,0.998-8.792,1.351c-1.333,0.159-2.675,0.3-4.008,0.424c-4.158,0.371-8.342,0.636-12.588,0.636
		C98.675,450.207,35.31,386.842,35.31,308.966 M322.754,150.625c-0.874,0.071-1.739,0.132-2.604,0.221
		c-1.042,0.097-2.057,0.256-3.09,0.38c-2.198,0.256-4.396,0.556-6.577,0.9c-1.792,0.282-3.575,0.583-5.35,0.918
		c-0.962,0.194-1.916,0.362-2.878,0.574c-1.13,0.238-2.242,0.556-3.372,0.821c-2.851,0.68-5.685,1.404-8.483,2.233
		c-1.563,0.459-3.116,0.962-4.661,1.474c-3.337,1.095-6.612,2.304-9.834,3.61c-1.148,0.459-2.295,0.9-3.425,1.386
		c-0.177,0.079-0.335,0.159-0.503,0.238c-2.86,1.245-5.658,2.586-8.422,3.99c-0.53,0.274-1.05,0.538-1.571,0.821
		c-0.203,0.097-0.406,0.203-0.609,0.309c-0.742,0.388-1.501,0.75-2.233,1.156c-1.068,0.591-2.172,1.121-3.222,1.739
		c-24.073-13.912-51.368-21.327-79.369-21.327c-5.835,0-11.582,0.362-17.258,0.98c4.017-49.876,45.815-89.256,96.706-89.256
		c50.688,0,92.434,39.044,96.697,89.256c-0.362-0.044-0.724-0.124-1.086-0.159c-1.095-0.115-2.216-0.097-3.31-0.185
		c-4.352-0.38-8.633-0.636-12.853-0.636C331.185,150.069,326.956,150.29,322.754,150.625 M155.489,214.228
		c7.927,14.354,18.847,26.827,32.053,36.661c-0.803,2.074-1.448,4.228-2.172,6.338c-0.689,1.995-1.421,3.964-2.039,5.985
		c-0.653,2.198-1.156,4.458-1.721,6.691c-0.644,2.551-1.386,5.067-1.916,7.662c-6.4-4.131-12.456-8.748-18.097-13.824
		c-0.018-0.018-0.044-0.044-0.062-0.062c-2.816-2.542-5.517-5.199-8.121-7.954c-0.177-0.185-0.344-0.371-0.521-0.556
		c-2.507-2.684-4.917-5.455-7.212-8.324c-0.106-0.141-0.221-0.274-0.327-0.415c-5.667-7.133-10.558-14.857-14.751-22.978
		C138.328,219.286,146.688,216.188,155.489,214.228 M204.394,219.295c-0.503,0.733-0.98,1.474-1.465,2.207
		c-2.154,3.257-4.175,6.594-6.091,10.01c-0.556,0.998-1.13,1.986-1.668,2.993c-7.954-6.4-14.733-14.062-20.312-22.554
		c0.574-0.009,1.121-0.088,1.695-0.088c10.205,0,20.153,1.562,29.705,4.634C205.603,217.406,205.03,218.368,204.394,219.295
		 M197.835,403.641c-1.306,0.3-2.622,0.547-3.946,0.786c-1.774,0.327-3.558,0.6-5.367,0.821c-1.033,0.132-2.074,0.274-3.116,0.371
		c-2.922,0.265-5.862,0.45-8.854,0.45c-53.539,0-97.103-43.564-97.103-97.103c0-3.54,0.221-7.044,0.591-10.514
		c0.115-1.059,0.335-2.083,0.477-3.125c0.344-2.392,0.706-4.776,1.218-7.124c0.274-1.218,0.618-2.401,0.936-3.602
		c0.547-2.127,1.13-4.237,1.818-6.312c0.415-1.236,0.883-2.445,1.342-3.655c0.759-1.995,1.571-3.972,2.454-5.914
		c0.53-1.156,1.086-2.295,1.66-3.425c1.015-2.004,2.101-3.964,3.249-5.888c0.574-0.945,1.13-1.907,1.73-2.834
		c1.465-2.278,3.046-4.484,4.705-6.638c0.371-0.477,0.706-0.98,1.086-1.448c4.414-5.5,9.446-10.567,15.06-15.06
		c0.009,0.009,0.009,0.018,0.018,0.018c1.501,2.816,3.116,5.553,4.785,8.263c0.441,0.715,0.865,1.43,1.315,2.136
		c1.58,2.489,3.24,4.917,4.952,7.309c0.6,0.83,1.209,1.642,1.818,2.463c0.371,0.494,0.724,1.006,1.103,1.501
		c0.309,0.406,0.591,0.83,0.9,1.227c1.086,1.395,2.225,2.745,3.354,4.105c0.609,0.724,1.245,1.421,1.863,2.136
		c0.371,0.433,0.742,0.865,1.121,1.289c0.653,0.742,1.271,1.501,1.942,2.233c2.03,2.207,4.167,4.326,6.321,6.426
		c0.909,0.883,1.792,1.783,2.719,2.648c2.057,1.916,4.193,3.734,6.356,5.544c1.13,0.945,2.251,1.898,3.407,2.816
		c0.062,0.044,0.124,0.106,0.185,0.15c0.23,0.185,0.441,0.371,0.662,0.547c1.801,1.404,3.672,2.719,5.526,4.043
		c1.059,0.75,2.092,1.536,3.169,2.269c0.406,0.274,0.83,0.53,1.245,0.803c1.977,1.306,3.999,2.551,6.038,3.769
		c0.847,0.512,1.651,1.086,2.507,1.571c-0.353,4.299-0.53,8.351-0.53,12.27c0,4.423,0.212,8.828,0.583,13.206
		c0.132,1.563,0.371,3.099,0.547,4.643c0.318,2.798,0.644,5.588,1.112,8.351c0.318,1.898,0.733,3.769,1.121,5.65
		c0.486,2.366,0.98,4.723,1.571,7.062c0.521,2.048,1.103,4.069,1.704,6.1c0.627,2.11,1.28,4.202,1.986,6.276
		c0.733,2.136,1.501,4.246,2.313,6.347c0.742,1.889,1.527,3.752,2.33,5.606c0.953,2.198,1.916,4.37,2.966,6.515
		c0.812,1.66,1.686,3.275,2.551,4.899c1.201,2.251,2.392,4.502,3.708,6.7c0.786,1.324,1.66,2.604,2.489,3.902
		c1.527,2.401,3.037,4.82,4.696,7.142l0,0c-1.518,0.494-3.063,0.883-4.599,1.306C200.369,403.006,199.115,403.359,197.835,403.641
		 M256,17.655c77.877,0,141.241,63.364,141.241,141.241c0,1.201-0.018,2.419-0.062,3.655c-4.802-2.03-9.728-3.822-14.76-5.385
		c-2.719-0.847-5.5-1.43-8.263-2.127c-1.218-0.309-2.41-0.662-3.646-0.945C367.969,93.052,317.652,44.138,256,44.138
		S144.031,93.052,141.489,154.094c-9.154,2.074-18.044,4.829-26.518,8.404c-0.035-1.201-0.212-2.41-0.212-3.602
		C114.759,81.02,178.123,17.655,256,17.655 M414.305,171.211c0.353-4.29,0.591-8.43,0.591-12.314C414.897,71.283,343.614,0,256,0
		S97.103,71.283,97.103,158.897c0,4.087,0.221,8.21,0.53,12.332c-2.648,1.518-5.244,3.098-7.777,4.749
		c-1.156,0.75-2.304,1.501-3.443,2.278c-7.839,5.402-15.095,11.441-21.751,18.026c-0.291,0.291-0.583,0.591-0.874,0.883
		c-10.567,10.628-19.535,22.643-26.668,35.699c-0.124,0.23-0.256,0.459-0.388,0.689c-2.375,4.396-4.564,8.898-6.515,13.506
		c-0.062,0.159-0.124,0.318-0.185,0.477c-1.748,4.158-3.284,8.413-4.67,12.729c-0.291,0.909-0.583,1.801-0.865,2.71
		c-1.368,4.546-2.595,9.137-3.558,13.824c-0.071,0.318-0.106,0.644-0.168,0.971c-0.865,4.308-1.501,8.669-2.004,13.074
		c-0.141,1.227-0.265,2.445-0.38,3.681c-0.433,4.776-0.733,9.578-0.733,14.442c0,87.614,71.283,158.897,158.897,158.897
		c4.749,0,9.472-0.291,14.177-0.715c1.492-0.132,2.975-0.3,4.467-0.477c3.372-0.406,6.718-0.918,10.055-1.536
		c1.483-0.274,2.975-0.494,4.431-0.803c3.902-0.839,7.768-1.854,11.599-2.984c2.269-0.671,4.493-1.439,6.727-2.198
		c1.863-0.644,3.716-1.324,5.561-2.039c2.419-0.936,4.838-1.88,7.203-2.922c1.006-0.45,1.977-0.971,2.975-1.439
		c4.149-1.951,8.201-4.034,12.147-6.321c24.126,13.983,51.482,21.433,79.554,21.433c87.614,0,158.897-71.283,158.897-158.897
		C494.345,250.059,462.045,198.656,414.305,171.211"/>
</g>
<g>
</g>
<g>
</g>
<g>
</g>
<g>
</g>
<g>
</g>
<g>
</g>
<g>
</g>
<g>
</g>
<g>
</g>
<g>
</g>
<g>
</g>
<g>
</g>
<g>
</g>
<g>
</g>
<g>
</g>
</svg>
