<?xml version="1.0" encoding="iso-8859-1"?>
<!-- Generator: Adobe Illustrator 19.0.0, SVG Export Plug-In . SVG Version: 6.00 Build 0)  -->
<svg version="1.1" id="Layer_1" xmlns="http://www.w3.org/2000/svg" xmlns:xlink="http://www.w3.org/1999/xlink" x="0px" y="0px"
	 viewBox="0 0 512.094 512.094" style="enable-background:new 0 0 512.094 512.094;" xml:space="preserve">
<g>
	<path style="fill:#2980BA;" d="M256,0.047c-141.158,0-256,114.842-256,256s114.842,256,256,256s256-114.842,256-256
		S397.158,0.047,256,0.047"/>
	<g>
		<path style="fill:#FFFFFF;" d="M348.196,181.08h0.085H348.196z M187.735,315.778c2.244,0,4.446,0.887,6.076,2.543
			c2.33,2.364,3.081,5.862,1.92,8.96c-3.362,9.045-5.342,17.476-6.409,22.955c-1.05,5.376-1.459,10.47-1.22,15.138
			c3.294,64.452,51.866,112.623,68.079,126.976c16.094-14.285,64.137-62.003,68.019-125.611c0.324-5.18-0.188-10.701-1.562-16.879
			c-1.22-5.547-3.328-13.986-6.417-22.699c-1.101-3.123-0.299-6.605,2.057-8.926c2.364-2.33,5.871-3.072,8.96-1.92
			c9.037,3.354,17.493,5.367,22.997,6.451c5.444,1.084,10.59,1.502,15.351,1.263c64.367-3.362,112.469-51.874,126.805-68.07
			c-14.293-16.111-62.114-64.247-125.824-68.036c-5.06-0.273-10.505,0.188-16.572,1.502c-5.598,1.203-14.114,3.294-22.886,6.4
			c-3.115,1.092-6.605,0.299-8.926-2.057c-2.321-2.364-3.072-5.854-1.92-8.96c3.337-8.977,5.367-17.365,6.485-22.827
			c1.135-5.547,1.579-10.82,1.323-15.659c-3.456-64.077-51.891-112.205-68.07-126.566c-16.128,14.31-64.316,62.182-68.036,125.961
			c-0.299,5.018,0.179,10.368,1.459,16.375c1.178,5.572,3.243,14.054,6.357,22.844c1.101,3.123,0.299,6.605-2.065,8.926
			c-2.355,2.321-5.862,3.063-8.951,1.92c-8.969-3.337-17.34-5.342-22.784-6.434c-5.453-1.101-10.641-1.527-15.454-1.289
			c-64.154,3.388-112.35,51.891-126.729,68.079c13.978,15.753,59.947,62.063,121.438,67.695c7.424,0.691,14.985,0.171,22.46-1.519
			c7.501-1.69,14.635-3.729,21.188-6.05C185.815,315.94,186.779,315.778,187.735,315.778L187.735,315.778z M256.189,512.045
			c-1.835,0-3.669-0.589-5.205-1.775c-3.089-2.381-75.597-59.204-79.923-144.026c-0.316-6.042,0.196-12.535,1.51-19.285
			c0.521-2.688,1.246-6.025,2.219-9.779c-2.406,0.631-4.855,1.229-7.339,1.783c-9.225,2.082-18.551,2.714-27.776,1.869
			C58.25,333.374,4.132,264.288,1.871,261.353c-2.364-3.072-2.364-7.356,0-10.419c2.372-3.081,59.085-75.443,143.761-79.915
			c6.246-0.324,12.868,0.213,19.721,1.596c3.217,0.649,6.4,1.382,9.54,2.202c-0.905-3.49-1.621-6.613-2.159-9.173
			c-1.604-7.526-2.193-14.37-1.801-20.924c4.907-84.198,76.8-140.535,79.855-142.899c3.072-2.364,7.356-2.364,10.419,0
			c3.081,2.372,75.341,59.008,79.906,143.59c0.333,6.289-0.213,13.022-1.647,20.002c-0.538,2.62-1.263,5.862-2.219,9.506
			c3.473-0.905,6.588-1.63,9.148-2.185c7.603-1.63,14.524-2.253,21.18-1.843c84.122,5.001,140.39,76.8,142.746,79.855
			c2.364,3.063,2.364,7.347,0,10.411c-2.372,3.089-59.127,75.494-143.846,79.923c-6.161,0.324-12.732-0.205-19.567-1.57
			c-2.688-0.538-6.016-1.263-9.754-2.236c0.887,3.379,1.604,6.409,2.15,8.9c1.715,7.757,2.347,14.822,1.937,21.606
			c-5.129,83.985-76.791,140.143-79.838,142.49C259.867,511.456,258.033,512.045,256.189,512.045L256.189,512.045z"/>
		<path style="fill:#FFFFFF;" d="M213.333,221.913c-2.185,0-4.369-0.836-6.033-2.5l-25.6-25.6c-3.337-3.337-3.337-8.73,0-12.066
			c3.337-3.337,8.73-3.337,12.066,0l25.6,25.6c3.337,3.337,3.337,8.73,0,12.066C217.702,221.077,215.518,221.913,213.333,221.913"/>
		<path style="fill:#FFFFFF;" d="M298.667,221.913c-2.185,0-4.369-0.836-6.033-2.5c-3.337-3.337-3.337-8.73,0-12.066l25.6-25.6
			c3.337-3.337,8.73-3.337,12.066,0c3.337,3.337,3.337,8.73,0,12.066l-25.6,25.6C303.036,221.077,300.851,221.913,298.667,221.913"
			/>
		<path style="fill:#FFFFFF;" d="M324.267,332.847c-2.185,0-4.369-0.836-6.033-2.5l-25.6-25.6c-3.337-3.337-3.337-8.73,0-12.066
			c3.337-3.337,8.73-3.337,12.066,0l25.6,25.6c3.337,3.337,3.337,8.73,0,12.066C328.636,332.01,326.451,332.847,324.267,332.847"/>
		<path style="fill:#FFFFFF;" d="M187.733,332.847c-2.185,0-4.369-0.836-6.033-2.5c-3.337-3.337-3.337-8.73,0-12.066l25.6-25.6
			c3.337-3.337,8.73-3.337,12.066,0c3.337,3.337,3.337,8.73,0,12.066l-25.6,25.6C192.102,332.01,189.918,332.847,187.733,332.847"/>
		<path style="fill:#FFFFFF;" d="M366.925,298.713c-4.506,0-8.277-3.533-8.516-8.09c-0.239-4.71,3.371-8.721,8.081-8.969
			c25.702-1.34,46.831-13.346,63.334-25.6c-15.744-11.614-37.385-24.073-63.403-25.626c-4.702-0.282-8.286-4.318-8.004-9.028
			c0.282-4.693,4.275-8.303,9.028-8.004c35.985,2.142,63.838,21.581,81.655,36.019c2.005,1.621,3.166,4.053,3.166,6.63
			c0,2.577-1.161,5.009-3.166,6.63c-19.516,15.804-46.447,34.185-81.724,36.028C367.224,298.713,367.078,298.713,366.925,298.713"/>
		<path style="fill:#FFFFFF;" d="M145.075,298.713c-0.154,0-0.299,0-0.452-0.009c-35.277-1.843-62.208-20.224-81.724-36.028
			c-2.005-1.621-3.166-4.053-3.166-6.63c0-2.577,1.161-5.009,3.166-6.63c17.818-14.438,45.67-33.877,81.655-36.019
			c4.796-0.316,8.755,3.311,9.028,8.004c0.282,4.71-3.302,8.747-8.004,9.028c-26.018,1.553-47.659,14.012-63.403,25.626
			c16.503,12.254,37.632,24.26,63.334,25.6c4.71,0.247,8.32,4.258,8.081,8.969C153.353,295.181,149.581,298.713,145.075,298.713"/>
		<path style="fill:#FFFFFF;" d="M221.875,153.647c-0.171,0-0.341,0-0.521-0.017c-4.702-0.282-8.286-4.318-8.004-9.028
			c2.142-35.985,21.581-63.846,36.019-81.655c1.621-2.005,4.053-3.166,6.63-3.166c2.577,0,5.009,1.161,6.63,3.166
			c15.804,19.516,34.185,46.438,36.028,81.724c0.239,4.71-3.371,8.721-8.081,8.969c-4.779,0.23-8.721-3.371-8.969-8.081
			c-1.34-25.702-13.346-46.839-25.6-63.334c-11.614,15.744-24.073,37.385-25.626,63.403
			C230.118,150.148,226.355,153.647,221.875,153.647"/>
		<path style="fill:#FFFFFF;" d="M256,452.313c-2.577,0-5.009-1.161-6.63-3.166c-14.438-17.809-33.877-45.67-36.019-81.655
			c-0.282-4.71,3.302-8.747,8.004-9.028c4.779-0.324,8.747,3.311,9.028,8.004c1.553,26.018,14.012,47.659,25.626,63.403
			c12.254-16.495,24.26-37.632,25.6-63.334c0.247-4.71,4.198-8.337,8.969-8.081c4.71,0.247,8.32,4.258,8.081,8.969
			c-1.843,35.285-20.224,62.208-36.028,81.724C261.009,451.153,258.577,452.313,256,452.313"/>
	</g>
</g>
<g>
</g>
<g>
</g>
<g>
</g>
<g>
</g>
<g>
</g>
<g>
</g>
<g>
</g>
<g>
</g>
<g>
</g>
<g>
</g>
<g>
</g>
<g>
</g>
<g>
</g>
<g>
</g>
<g>
</g>
</svg>
