<?xml version="1.0" encoding="iso-8859-1"?>
<!-- Generator: Adobe Illustrator 19.0.0, SVG Export Plug-In . SVG Version: 6.00 Build 0)  -->
<svg version="1.1" id="Layer_1" xmlns="http://www.w3.org/2000/svg" xmlns:xlink="http://www.w3.org/1999/xlink" x="0px" y="0px"
	 viewBox="0 0 512 512" style="enable-background:new 0 0 512 512;" xml:space="preserve">
<g>
	<path style="fill:#2980BA;" d="M256,512C114.847,512,0,397.162,0,256S114.847,0,256,0s256,114.838,256,256S397.153,512,256,512"/>
	<polygon style="fill:#F0785A;" points="379.586,326.621 132.414,326.621 256,123.586 	"/>
	<polygon style="fill:#A84A38;" points="194.207,291.31 256,194.207 317.793,291.31 	"/>
	<g>
		<path style="fill:#F0C419;" d="M194.455,220.336h2.657l58.889-96.75l58.889,96.75h2.657c31.956-20.374,53.213-56.038,53.213-96.75
			c0-63.382-51.377-114.759-114.759-114.759S141.242,60.203,141.242,123.585C141.242,164.298,162.499,199.962,194.455,220.336"/>
		<path style="fill:#F0C419;" d="M193.64,226.035l-1.624-2.216c-15.325-7.583-32.521-11.961-50.776-11.961
			c-63.373,0-114.759,51.385-114.759,114.759c0,63.382,51.385,114.759,114.759,114.759c63.382,0,114.759-51.377,114.759-114.759
			H132.412L193.64,226.035z"/>
		<path style="fill:#F0C419;" d="M370.759,211.862c-18.255,0-35.452,4.378-50.776,11.961l-1.624,2.216l61.228,100.582H256
			c0,63.382,51.377,114.759,114.759,114.759s114.759-51.377,114.759-114.759S434.141,211.862,370.759,211.862"/>
	</g>
</g>
<g>
</g>
<g>
</g>
<g>
</g>
<g>
</g>
<g>
</g>
<g>
</g>
<g>
</g>
<g>
</g>
<g>
</g>
<g>
</g>
<g>
</g>
<g>
</g>
<g>
</g>
<g>
</g>
<g>
</g>
</svg>
