<?xml version="1.0" encoding="iso-8859-1"?>
<!-- Generator: Adobe Illustrator 19.0.0, SVG Export Plug-In . SVG Version: 6.00 Build 0)  -->
<svg version="1.1" id="Layer_1" xmlns="http://www.w3.org/2000/svg" xmlns:xlink="http://www.w3.org/1999/xlink" x="0px" y="0px"
	 viewBox="0 0 512 512" style="enable-background:new 0 0 512 512;" xml:space="preserve">
<g>
	<path style="fill:#F0C419;" d="M512,256c0,141.383-114.617,256-256,256S0,397.383,0,256S114.617,0,256,0S512,114.617,512,256"/>
	<path style="fill:#F0785A;" d="M247.172,459.034l8.828,8.828l8.828-8.828c64.653-61.528,63.488-156.354-1.165-217.882l-8.801-8.369
		l-8.792,8.369C181.416,302.68,182.519,397.506,247.172,459.034"/>
	<g>
		<path style="fill:#A84A38;" d="M263.659,241.152c13.294,12.65,23.808,26.933,31.638,42.161
			c76.438-10.637,130.719-75.767,128.724-156.063l-0.3-12.138l-12.138-0.3C334.986,112.914,273.29,164.643,258,235.767
			L263.659,241.152z"/>
		<path style="fill:#A84A38;" d="M214.592,282.999c7.812-15.104,18.273-29.281,31.479-41.852l5.817-5.526
			c-14.618-71.053-74.628-122.703-151.172-120.814l-12.138,0.3l-0.3,12.138C86.301,206.835,139.408,271.514,214.592,282.999"/>
	</g>
</g>
<g>
</g>
<g>
</g>
<g>
</g>
<g>
</g>
<g>
</g>
<g>
</g>
<g>
</g>
<g>
</g>
<g>
</g>
<g>
</g>
<g>
</g>
<g>
</g>
<g>
</g>
<g>
</g>
<g>
</g>
</svg>
